# xmcd
#
# Track frame offsets: 
#        180
#        27194
#        51331
#        78610
#
# Disc length: 1268 seconds
#
# Revision: 2
# Processed by: cddbd v1.4PL0 Copyright (c) Steve Scherf et al.
# Submitted via: ExactAudioCopy v0.95a3
#
DISCID=2c04f204
DTITLE=±i´f©f - 1998 Collection
DYEAR=1900
DGENRE=
TTITLE0=I Don't Want to Talk about it
TTITLE1=What's Up
TTITLE2=The Power of Love
TTITLE3=Walking by Myself
EXTD=
EXTT0=
EXTT1=
EXTT2=
EXTT3=
PLAYORDER=
